<?xml version='1.0' encoding='utf-8'?>
<svg xmlns="http://www.w3.org/2000/svg" enable-background="new 0 0 2714.495 1646.284" version="1.1" viewBox="0 0 2714.495 1646.284">
	<path d="m98.721 1005.5l-9.473 31.507-1.698 20.587c-0.794 9.639-1.258 4.823-7.328 6.802 0 0.179 3.21 5.159 3.575 6.356 3.183 10.437 5.463 27.276 3.753 37.952 0.888 10.296-1.761 27.061-6.256 36.43-5.962 12.43-3.574 24.535-3.574 37.774 1.306 4.642 3.688 9.253 4.289 13.963 2.268 17.755-0.929 38.171-1.697 56.122-1.795 8.386 6.012 21.291 8.757 29.181l5.542 15.932c2.239 6.437 3.963 14.41 7.327 20.319 0.503 4.819 2.956 12.099 4.469 16.828 1.135 3.545 1.701 7.28 2.221 11.044l8.453 1.437c4.813 0.759 8.433 2.968 13.318 1.038 2.302-0.91 7.334-1.079 8.851-2.717 2.742-2.957 7.42-5.977 10.607-1.359 2.799 4.056 2.744 3.221 7.735 3.437 2.721 0.118 6.355-8.528 6.54-11.188 0.114-1.623 2.029-3.802 3.189-4.715 2.737-2.152-2.402-3.256 1.037-6.073 4.621-1.672 4.602-9.776 4.386-14.064-0.12-2.382-2.356-1.598-3.19-2.878-0.703-1.079 1.384-2.031 0.239-3.596-1.319-1.804-1.759-4.682-1.196-6.952 0.52-2.1-0.682-4.668 2.392-4.795 1.884-0.077 4.231-0.266 5.901-1.199 1.023-0.572 1.385-1.984 1.994-2.318 1.634-0.892 2.929 0.642 4.625-1.678 0.879-1.2 2.137-1.912 3.429-2.557 0-1.4-0.038-5.082 0.878-6.073 2.538-2.746 5.7-1.478 7.575-5.993 2.418-3.301 3.561-7.722 6.141-10.868 3.377-4.121 1.523-2.784 6.699-4.315 2.845-0.842 3.233-4.214 6.618-4.795 5.793-0.995 9.914-2.943 14.673-6.952 3.952-3.328 4.898-2.637 9.411-2.637 1.408 0 9.695-5.537 10.686-7.031 0.951-1.433 2.973-3.513 3.349-5.034 0.701-2.837-0.443-5.776 1.037-8.551l7.177-9.669c1.084-1.461 4.98-5.245 6.699-2.957 1.571 2.093 9.586-0.467 11.484-2.317l5.901-5.753c1.561-1.522 0.811-3.74 1.914-5.114 0.916-1.143 2.747-0.08 3.986-0.08 0.919 0 2.618-4.177 5.184-5.114 3.294-1.201 5.116-2.651 8.772-1.518 2.069-0.189 2.839 1.349 4.944 0.799 4.12-1.074 3.085 0.831 5.821 1.997 1.963 0.837 4.077 0.208 6.379 1.359 1.487 0.742 1.727 2.545 3.429 3.197 2.997 1.148 8.647-0.08 12.042-0.08 6.804 0 6.126-1.969 9.569-6.952 4.529-6.552 6.365-6.203 13.397-8.95 3.293-1.048 5.177-2.709 6.379-5.594 0.791-1.9 3.767-1.416 4.944-3.915 0.564-1.2 0.042-3.327 0.878-4.235 2.313-2.51 5.893-1.12 8.453-5.194 1.369-2.178 2.837-2.951 5.183-1.519 1.476 0.901 3.659 0.953 5.264 1.519 3.244 1.147 2.223 4.462 6.379 3.276 3.94-1.123 8.453-2.113 12.521-2.717 2.884-0.163 1.492-3.403 4.386-3.516 2.74-0.107 10.459-6.277 10.846-5.274 3.579 9.275 8.616-9.576 9.729-10.628 3.464-3.279 1.009-11.481 6.619-9.829 5.946 1.75 1.267-5.285 5.901-6.632 3.584-1.042 4.378-0.101 6.938 1.997 0.23 0.189 8.795-0.132 9.091-0.479 1.962-2.296 0.634-2.646 3.508-1.119 2.066 1.099 4.091-1.931 5.662-2.717 5.195 0.343 7.103-3.117 11.643-3.117 5.166 0 8.402 4.88 12.042 7.032 1.821 1.077 8.307-1.006 10.606-1.358 1.469-0.225 6.547-1.535 6.858 0.479 0.806 5.221 1.544 4.068 4.227 7.671 2.603 3.498 3.766 0.447 4.465 5.434 2.902 0.798 7.539-0.741 10.207-2.077 1.286 0.164 5.048 1.387 6.061 0.799 2.314-1.346 0.214-5.227 4.785-3.276 2.712 1.157 5.504-2.612 8.055-1.359 2.053 1.01 0.302 3.648 1.116 5.194 0.333 0.632 3.698 0.847 4.785 1.518 3.023 1.87 3.312 6.116 6.619 2.637 5.018-5.275 9.012-0.648 14.115-3.196 2.849-1.421 4.06-3.13 7.576-4.076 2.722-0.731 5.507 0.84 7.815 1.998 4.289 1.128 6.033 0.953 10.447 0.319 3.832-0.55 2.995-0.436 4.944 1.758 3.415 3.846 9.337 5.443 14.433 5.034 3.455-0.276 4.399 2.233 7.576 2.956 4.064 0.924 12.719-3.271 14.673 0.88 2.426 5.151 9.706-0.648 12.361 5.194l3.429 5.035c0.786 1.153 0.852 3.281 2.313 3.835 3.139 1.193 7.114-0.288 9.968 1.838 3.305 2.459 5.292 8.33 11.164 6.153 2.656-0.985 3.2-4.351 4.865-6.232 2.784-3.143 3.141-5.048 7.655-5.993 6.916-1.696 6.897 4.874 12.919 2.957 3.789-1.207 8.137-0.799 12.121-0.799 2.599 0 4.443 2.237 7.098 2.237 3.74 0 8.749-0.759 12.201-2.237 4.879-2.09 10.769-2.202 15.789-4.156 5.579-2.039 12.157-4.6 8.294-11.667-3.54-6.473 1.3-3.033 3.668-6.473 1.346-1.953-0.346-4.504 1.754-6.153 2.274-1.787 10.289-0.797 10.925 2.238 0.665 3.171 7.332 1.368 9.49 1.678 1.784 7.048 5.43 14.626 6.858 21.576 0.306 1.492-2.59 2.525-3.828 2.637-1.582 0.142 0.269 6.128 0.718 7.432 1.409 4.089 3.766 8.375 4.226 12.786 1.049 2.152 5.012 11.06 7.975 10.627 2.729-0.4 8.089-3.531 10.287-1.918 2.04 1.499 4.212 3.184 5.183 5.514 0.417 0.999 1.467 4.739 2.153 5.354 0.747 0.672 5.413 0.409 6.619 0.319 0.684-0.051-0.171-3.834 0.16-4.795 1.633-4.74 16.932-11.674 21.69-13.265 9.153-3.059-3.349-7.419-1.595-12.146 2.349-1.039 3.227-2.099 1.994-4.315-0.401-0.72-2.715-3.343-2.393-3.995 0.331-0.669 5.723-0.253 6.539-0.319 4.747-0.388 10.899-1.099 15.551-2.158 6.308-1.435 13.466 0.034 20.016-1.359 5.943-1.265 4.677-6.233 11.403-6.233 7.847 0.183 15.023 2.477 22.887 2.477 1.794 0 7.845 3.829 9.889 4.795 3.68 1.741 4.362 9.918 9.49 11.826 5.733 2.134 16.783 1.037 20.575 6.712 5.089 3.558 7.724 5.528 14.194 6.154 9.225 0.893 10.884-8.998 17.863-10.549 3.448-0.765 6.256-1.16 9.011-3.676 3.412-3.116 7.535-4.157 11.723-5.753l22.568-4.076c4.816-0.87 8.813 0.722 13.955-0.559 19.821-4.937 1.203 16.919 3.668 22.934 1.442 3.516 1.631 13.375 6.38 5.434 1.864-3.118 3.374-8.402 7.097-9.829 5.811-2.226 6.466 3.548 10.048 2.797l28.788-0.24 0.318 4.395 37.002-0.08 0.479 12.706 9.41 6.713c-0.705 2.597-0.319 5.889-0.319 8.63 0 1.631-1.046 4.288 1.436 4.475 2.152 0.161 15.532 0.447 15.949 1.597 0.903 2.5-1.339 4.073 2.632 5.594 6.21 2.38 4.147 4.292 4.147 9.51 0 2.715 3.584 2.79 5.343 1.838 3.744-2.023 6.258-1.687 10.208-1.439 4.422 1.18 5.987 2.05 8.852-2.158 3.99-5.858 9.834-8.795 15.151-13.265 4.178-3.513 6.336 2.644 10.686-0.799 4.013-3.176 9.809-1.786 9.809-7.192 0-1.334-2.179-5.947 0.478-6.073 1.41-0.066 2.746 0.559 4.226 0.559 2.018 0 3.932-0.879 5.901-0.879 3.22 0.919 7.48 0.72 9.251 3.676 1.492 2.492 4.167 14.511 7.815 13.185 3.948-1.434 7.666-6.225 11.882-2.237 5.708 5.403 6.386 9.331 14.993 11.028 3.169 0.625 5.991 2.101 7.336-1.279 1.523-3.825 1.963-3.822 6.619-5.273 5.491-0.67 11.378-6.507 16.667-8.631 3.371-1.354 17.836-2.394 18.98-4.794 2.056-4.31-2.472-9.743-2.472-13.745l-0.113-4.884c0.42-0.15 1.031-0.534 1.644-1.106 1.83-1.704 2.525-5.218 4.469-7.161 1.712-1.712 3.989-0.503 5.183-3.043 2.105-4.479 6.613-3.915 6.613-9.399 0-5.671-0.685-17.67 7.328-15.306 3.597 1.061 18.811 1.076 19.125-4.476 0.179-3.173-0.778-10.102 1.966-12.084 0.999-0.721 2.188 0.844 3.486 0.984 2.204 0.238 4.409 0.479 6.613 0.717 4.689 0.507 6.394-6.015 10.724-0.717 1.632 1.996 8.823-2.675 10.813-3.669 4.372-2.185 0.108-7.22 4.468-9.31 3.513-1.684 2.393 5.216 4.558 6.535 2.509 1.529 6.1-1.86 9.026-1.97 2.848-0.107 4.848 0.085 5.005-3.402 0.193-4.286-8.032-5.205-1.877-11.009 1.597-1.506 3.227-1.791 4.111-4.118 1.382-3.639 3.133-5.325 6.167-2.506 1.371 1.274 4.728 0.513 6.881 1.522 2.684 1.258 4.477 3.4 3.754 6.445-0.198 0.833-0.033 1.527 0.38 2.105-1.653 2.732-4.535 4.353-4.535 7.608 0 2.599 1.008 4.286 1.594 6.633 0.325 1.298 0.824 3.797 2.313 4.155 3.437 0.826 3.17 1.327 4.865 4.396 1.739 3.144 2.927 6.461 3.828 10.068-0.751 2.668 0.248 2.957 2.313 2.957 1.214 0 0.514 3.82 4.067 4.235 2.644 0.309 2.847 1.325 2.951 3.995 0.105 2.683 0.442 3.432 1.914 5.514 0.936 1.321-0.878 6.491-0.878 8.87 0 3.195-1.059 5.859-0.079 9.189 1.465 4.983 1.219 8.197 4.785 12.067 1.279 1.388 0.96 3.357 1.833 5.114 0.498 1 5.391 3.187 6.46 3.516 1.214 0.73 3.988 6.668 4.307 8.23 0.348 1.7 0.997 3.142 2.552 4.076 2.784 1.674 4.209-2.314 5.104 1.518 0.579 2.477 3.195 2.146 5.024 3.117 1.475 0.784 0.957 3.258 0.957 4.795 0 2.104 0.643 2.457 1.675 4.076 0.998 1.563-3.887 5.366 0.957 6.153 2.38 0.387 0.951 3.152 0.399 4.475-2.598 6.219 0.787 4.007 2.393 8.949 0.818 2.517-0.205 2.993-0.639 5.274-0.406 2.126 0.957 4.186 0.957 6.393 0 1.022-0.399 4.539 0.718 5.034 0.859 0.38 2.268-0.795 3.111-0.16 0 7.601 6.979 4.019 11.722 5.594 4 1.329 7.972 5.841 11.564 6.393 3.742 0.574 7.815-0.108 11.643 0 6.479 0.182 6.568-1.836 10.446-6.314 1.355-1.565 2.802-3.371 5.025-3.516 1.903-0.123 1.949 2.249 2.871 3.516 6.506 1.672 3.645-1.708 5.024 5.354 1.299 6.648 5.208 1.388 7.496 3.676 0.985 0.985 1.773 5.304 2.472 6.873 1.33 2.982 8.317 6.249 11.325 8.55 2.723 2.084 7.702-3.355 11.244-3.915l17.703-2.797c3.338-0.528 3.271-0.385 3.271 2.638 0 2.589 2.637 3.907 4.864 4.714 2.493-0.202 2.248-2.935 4.147-3.995 1.085-0.604 6.877-0.271 8.214 0.079 0.997 0.263 0.46 1.934 1.196 2.717 1.618 1.721 14.365 3.991 16.427 2.957 3.019-1.512-0.223-8.355 3.749-10.229 5.103-2.408 9.229-4.887 13.955-0.16 4.808 4.808 0.945 12.182 9.809 14.384 6.473 0.313 12.567 2.317 19.298 2.317 3.819 0 7.07-1.06 8.851-4.794 2.831-5.936 9.691-4.646 7.815 1.518-1.761 5.784-0.216 7.185 4.625 10.229 2.677 1.684 0.608 4.905-0.239 7.033-1.207 3.033 0.525 3.22 0.957 5.913 0.538 3.359-4.697 5.811-3.19 8.791 1.504 2.979 11.907 5.549 15.152 6.313 4.284 1.691 4.557 7.097 8.293 8.47 6.121 2.249 18.159 2.778 22.967 6.393 2.219 1.667 1.938 9.858 4.067 12.705 2.101 2.81 6.585 1.98 8.293 4.875 0.816 1.384 1.117 4.821 1.117 6.472 0 4.086-3.673 2.282-1.754 8.23 1.271 3.939 9.532 1.216 13.237 1.838 1.26 1.261 6.125 2.905 8.055 3.836 2.334 1.126 7.587 1.362 8.851 3.676 1.423 2.602 2.565 0.236 5.104 1.438 1.447 0.684 2.6 2.372 4.147 2.638 4.073 0.699 2.959 2.717 5.661 4.315 3.374 1.996 2.87 3.678 5.104 6.233 2.612 3.033 3.537-1.925 5.264-0.64 2.32 1.728 11.809 4.712 12.44 6.713 0.931 2.955-1.944 5.573 0.558 9.109 2.952 4.173 7.875 9.063 9.569 13.664 0.858 2.333 1.116 4.928 2.153 7.352 1.561 3.645 4.135 5.629 6.3 8.791 2.548 2.387 3.814 5.05 5.662 7.831 2.54 3.819 11.176 0.136 14.992 3.756 4.006 3.799 2.736 6.364 8.613 4.554 1.383-0.426 10.957 9.654 12.36 11.268 5.263 6.052 5.264 9.299 5.264 17.18 0 3.717-1.704 5.424 0.079 8.95l8.932 17.66c4.547 8.99 12.29 14.493 18.581 22.296 1.953 2.423 8.654 0.932 11.722 1.998 3.275 1.138 6.943 5.418 7.337 8.949 0.574 2.818 4.244 13.202 7.415 13.345 4.217 0.19 5.069-4.199 10.208-2.717 3.458 0.996 7.167-0.975 10.526 0.4 4.14 1.694 7.507 5.386 11.723 6.633 1.486 0.44 3.897 1.108 4.864 2.397 1.18 1.576 0.155 3.11 1.754 4.715 1.489 1.069 3.478 0.721 4.865 2.015 2.547 2.373 4.254 4.496 8.054 4.076 3.621-0.4 6.869-0.786 10.447-1.678 4.187-1.044 7.284 3.598 12.042 2.077 3.843-1.228 6.154-2.638 10.526-2.638 3.728-0.376 4.764-2.998 4.067-6.65-0.378-1.984 2.891-3.086 3.031-5.273 0.112-1.768-1.406-4.658 1.436-4.556 6.733 0.244 13.647 2.054 20.494 2.398 3.51 0.176 4.815 3.457 6.54 6.073 2.399 3.641 9.738 7.763 14.035 8.551 9.766 1.79 5.462-7.529 10.526-10.388 5.414-1.356 10.336-5.876 15.869-7.671 4.308-1.397 14.023-3.026 11.802-9.909-1.941-6.015 1.324-12.494 6.779-15.663 1.51-2.088 0.552-5.062 1.993-7.512 3.139-5.341 3.683-11.961 6.699-16.86 2.622-4.262 8.775 3.917 9.57-0.161 0.654-3.351 0.809-5.586 3.668-7.99 2.286-1.924 3.866-7.591 6.061-7.911 2.865-0.419 4.411 0.452 6.3-2.238 0.901-1.282 3.806-4.176 5.103-4.874 1.588-0.353 3.216-1.895 4.626-0.48 2.753 2.76 5.738-2.136 9.331-2.557 3.551-0.415 18.036 4.462 18.819-0.479 0.537-3.381-2.608-9.44 3.11-10.148 2.666-0.33 6.614-2.435 8.932-1.838 2.979 0.768 2.569 1.308 5.264-0.879 1.213-0.985 6.004 2.232 6.539 3.515 1.921 4.608-0.873 4.852 5.343 6.633 6.475 1.583 6.432 7.253 11.882 11.028 3.369 2.335 6.869 4.557 8.294 8.47 2.37 6.506 7.003 7.338 12.44 11.028 5.348 3.628 11.3-5.077 17.385-5.514 2.524 0 4.98-0.529 6.22-2.877 0.509-0.961 0.58-1.946 1.036-2.877 0.672-1.366 1.678-2.288 2.154-3.836l5.062-1.888c0.365 0.37 0.764 0.738 1.188 1.096 5.695 4.79 12.471 6.072 18.32 10.204 5.246 3.706 11.744 0.152 17.606 1.88 17.068 5.033 32.792 5.913 49.481 3.977l8.265-37.299-4.522-29.474 9.521-11.424 0.159-11.742 33.48-27.609c0.994-0.822 3.306-4.651 4.507-2.242 1.523 3.054 6.275 2.697 8.612 0.799l6.3-5.115c2.947-2.392 3.051-2.088 2.552-5.513-0.28-1.926 0.823-4.078 0-5.834-1.302-2.78-0.103-2.722 2.073-3.117 2.201-0.399 1.191-2.162 1.276-3.676 0.07-1.252 2.25-2.024 2.95-3.036 4.753-6.879-5.438-5.431-5.582-8.63-0.071-1.608 1.49-6.931 4.067-5.035 3.497 2.574 7.32 1.059 10.447-1.438 5.162-0.106 2.589-5.662 7.576-6.393 4.906-0.718 4.238-1.189 7.575 2.157 3.322 3.328 3.011-2.47 3.35-3.356 1.154-3.017 2.67-1.036 4.147-2.398 1.983-1.826 5.195-7.315 6.06-9.829 0.848-2.462-0.251-5.481 0.479-7.99 0.73-2.513 1.753-3.479 3.508-5.115 3.317-3.094-2.202-4.469 3.908-5.673 4.492-0.885 3.467-6.334 5.582-8.87 3.72 0.111 3.889-4.499 8.932-4.635 2.782-0.075 6.833-1.746 7.895 1.918 0.801 2.763 4.9 2.497 7.257 1.918 2.568-0.63 1.008-3.77 1.117-5.594 0.077-1.272 3.65-2.445 4.546-3.436 4.071-4.498 2.592-4.377 8.373-2.398 9.08 3.108 2.342-6.295 5.662-9.03 1.677-1.38 4.466-2.994 4.466-5.515 0-2.195 6.761-6.055 9.091-7.031 0.605-0.255 1.551 0.048 2.153 0.16 1.186 0.222 2.182 0.796 3.429 0.88l3.349-2.717c4.884-1.784 7.653-4.086 6.141-9.59-0.983-3.579 6.88-6.42 0.239-9.749-2.551-1.277 3.118-3.051 4.066-3.196 3.395-0.518 7.166-5.709 1.994-6.473-2.888-0.427-4.744 0.054-4.626-3.916 0.08-2.723 2.702-5.104 3.509-7.671 2.416-4.144 5.759-5.032 9.171-8.071 2.948-2.626 4.076-6.668 6.14-9.749 5.474-8.171-1.555-15.066-4.625-22.455-2.073-4.989-7.151-13.586-5.901-19.018-1.201-4.127-2.961-17.556-6.061-19.898-5.005-3.783-10.826-6.685-7.097-12.626 2.123-3.38 2.995-6.914 4.864-10.308 3.933-7.137 2.936-5.039 0.24-12.306-1.297-3.498-0.534-5.313-0.16-8.87 8.692-14.157-4.532-12.358-10.606-22.215-1.356-2.203 0.283-5.843-2.711-6.712-2.94-0.855-3.906-6.901-5.343-9.51-0.906-1.646 0.469-3.5 0-5.034-0.944-3.092-0.625-2.49 1.515-4.795 1.794-1.93 0.187-2.507-1.754-4.156-4.961-4.21-3.213 1.641-6.619 2.717-3.954 1.251-6.181-4.024-7.895-6.712 0.842-2.541-1.057-4.284 1.595-6.313 2.354-1.8 3.03-4e-3 3.03-3.756 0-2.267 6.323-5.995 8.613-6.393 3.925-0.681 4.147-3.284 4.147-6.872 0-2.6 1.5-8.895 0.877-10.229-0.826-1.772-3.22-3.88-4.704-5.194-2.446-2.169-6.791 0.137-9.809-0.64-1.623-0.418-4.176-1.869-5.661-1.918-2.988-0.099-10.519 1.522-11.723-1.597-0.959-2.485-2.508-2.15-3.668-3.837-0.999-1.451 0.299-6.151 0.718-7.831-1.166-5.551-6.541-12.084-9.091-17.421-1.526-3.196-1.404-9.228-1.408-13.631h-2452.6c-1.296 8.05-2.318 16.716-4.641 24.445z" fill="#9E3039"/>
	<path d="m867.47 634.36c-0.859-5.303-2.364-11.254-4.648-16.112-2.256-4.797-5.251-7.407-6.167-12.889-1.143-6.845 2.018-14.485-1.251-20.677-3.913-7.411-3.355-14.345-4.915-22.735-3.028-5.704-9.149-12.602-9.563-18.887l-1.163-17.633c-0.345-5.25-3.156-4.475-6.971-4.475-3.323 0-7.029 0.111-10.187-1.164l-13.316-5.37c-5.764-2.325-8.96-7.085-12.065-12.621-7.02 0.88-11.459-4.709-16.891-8.414-9.923-6.765-16.099-10.733-19.572-23.273-1.398-5.047-5.137-5.356-8.49-9.13-4.768-5.365-7.952-13.819-11.261-20.14l-14.209-11.726c-8.265-6.821-17.226-11.656-26.096-17.365-10.809-6.956-19.789-16.112-27.258-26.674-0.092-3.138-6.648-9.901-8.49-12.89-9.193-14.905-18.771-32.118-19.662-50.215-3.64-6.893-0.684-23.848 0.537-31.507 0.798-5.006 1.326-9.255 2.949-14.053 0.934-2.766 4.379-6.881 4.379-9.488 0.518-0.171 0.625-2.281 0.625-2.954-0.11-0.036-0.142-0.069-0.178-0.178-13.145 0-28.629 7.372-40.842 12.173-5.872 4.246-13.709 5.49-19.751 9.756-20.41 14.409-46.77 26.462-69.529 37.058-6.747 4.952-14.889 6.607-21.895 10.741l-35.032 20.677c-15.813 9.333-27.896 9.912-45.578 11.637-8.676 3.253-19.484 0.514-28.508 2.505-5.662 1.25-10.725 4.145-16.266 5.729-15.914 4.549-34.647 6.384-43.969 21.572-2.441 7.335-5.385 13.081-6.524 20.857-1.611 11.004-5.928 16.077-11.886 24.883-6.243 9.226-8.976 19.645-14.12 29.27l-12.333 21.84c-1.419 2.514-4.099 5.973-6.613 7.429-2.242 1.3-6.613-2.451-6.613-1.432-0.187 0.046-0.282 3.689-0.357 4.207-2.223 15.159-14.38 25.655-20.913 38.758-2.091 11.814-12.659 17.804-17.338 27.837-5.217 11.184-4.372 33.234-2.144 45.023-1.66 9.696-1.407 22.506-0.626 32.582l1.097 14.14h641.69c-0.01-10.093-3.102-17.083-8.088-26.672z" fill="#9E3039"/>
	<path d="m2503.8 594.08c1.643-4.94-1.748-2.568-2.472-5.594-0.504-2.105 0.647-6.911 1.596-8.71 0.964-1.833 1.833-3.313 1.833-5.514 0-2.595 0.548-6.25-0.399-8.63-1.885-4.738-5.964-0.725-7.097-6.712-0.476-2.515-2.603-1.978-3.11-3.196-0.922-2.216-0.534-3.514-3.19-4.955-4.599-2.496-6.226-1.339-11.244-0.799-7.229 2.241-8.767-5.336-6.539-10.388 3.072-6.967-5.396-5.482-7.655-10.468-1.122-2.478-9.496-3.477-12.281-4.635-5.638-2.342-13.125-6.17-13.956-12.706-0.529-4.158-2.432-3.181-4.386-5.674-0.653-0.834 0.481-2.651-0.079-3.676-0.837-1.534-4.672-1.444-6.3-1.599-5.094 0-10.511-3.252-12.68-7.671-2.146-4.376-9.984-5.856-13.956-2.957-4.506 3.288-4.372 0.797-7.736-1.678-4.246-3.126-6.42-5.706-11.882-6.472 0-3.901 2.596-9.398 3.908-13.105 0.734-2.074 2.911-11.53 5.023-9.27 2.419 2.587 2.493-6.288 2.552-7.192 0.578-3.068 2.233-6.344 2.233-9.429 0-2.276-0.877-4.063-0.877-6.393 0-4.733 6.222-7.192 3.987-12.546-1.112-2.661-5.98-3.358-5.98-5.993 0-2.112 4.26-9.567 0.718-9.669l-8.214-0.239c-3.11-0.089-5.971-0.72-9.012-0.72-1.787 0-1.671 2.028-3.03 2.957-1.063 0.726-4.275 1.199-5.583 1.199-2.68 0-2.549 0.805-4.465 2.397-1.451 0.535-2.29 0.891-3.668 0-0.594-0.384-1.07-1.79-1.595-1.837-2.584-0.23-2.407 2.79-3.668 3.995-0.963 0.919-2.796 0.588-4.067 0.799-1.988 0.33-2.65 1.499-4.944 1.039-2.485-0.497-3.885-1.599-6.698-1.599-3.224 0-4.801-6.644-7.337-6.313-0.884 0.116-3.003 3.33-2.79 4.235 0.302 1.292 0.866 1.528 0.079 2.796l-4.849 3.255-1e-3 -1e-3c-1.923 0-2.535-1.416-5.153-0.983-2.147 0.356-2.988-0.582-4.661-1.64-3.64-2.303-5.685-7.249-9.487-9.261-2.606-1.38-5.573 3.192-6.379-0.738-0.984-4.792-4.631-0.429-5.317-5.819-0.252-1.986-2.906-2.58-4.498-1.721-5.616 3.034-2.79 0.015-6.46-1.557-3.161-1.355-9.298 0.034-12.514 0.82-5.57 1.384-8.271-3.777-13.331-4.753-4.949-0.955-11.959-0.391-16.439-1.885-2.491-0.832-4.615-4.66-6.706-6.474-3.021-2.619-7.18-4.831-10.796-6.557-2.559-1.222-13.772 1.015-8.833-6.147 5.473-7.938-4.868-8.97-10.305-8.195-1.094-0.366-5.097 0.922-5.479-0.574-0.24-0.938-0.039-2.721-0.981-3.278-1.944-1.148-5.617-1.207-6.625 0.983-1.866 4.057-1.223 1.528-3.762 1.64-1.979 0.086-7.218 2.976-6.543-2.131 0.397-2.998 5.682-7.203-0.408-6.392-2.974 0.396-3.617-0.333-4.58-3.197-0.826-2.459 0.624-5.598-3.027-5.737-3.601-0.138-4.491-0.205-6.788 3.115-2.426 3.505-5.83 5.761-9.733 6.966-2.021 0.623-3.162 3.005-4.499 4.344-1.756 2.648 2.132 2.242 1.309 3.852-0.331 0.645-2.441 3.432-2.453 3.605-0.262 3.576 3.973 3.34-0.736 5.737-2.361 1.202-4.479 0.239-6.134 2.869-1.384 2.199-6.22 6.299-8.425 2.787-3.34-5.325-5.76 5.624-7.197 6.147-2.821 1.026-2.401-4.568-4.907-3.935 0 2.75 1.485 5.373 0.491 7.95-2.553 6.618-2.635 2.267-7.197 2.048-1.813-0.087 0.62-3.161 1.309-3.851 2.435-2.44 4.958-5.573-0.818-5.573-4.4 0-3.284-0.21-5.234-3.196-0.766-1.171-2.733-3.582-3.68-1.148-1.68 4.315 1.759 5.461-0.327 8.196-1.869 2.453-3.889-0.489-5.644 0.819-5.778 4.302-2.625-0.327-7.442-0.327-1.797 0-1.552 2.824-4.008 2.95-8.616 0.444-3.305 8.776-7.769 9.261-2.74 0.298-7.699-1.127-7.851 2.869-0.342 8.943-13.449 9.743-8.67 22.62 1.128 3.04-1.486 3.09-2.617 1.229-2.1-3.451-2.903-1.012-5.234-2.623-3.729-2.579-1.401-11.369-2.535-14.342-1.177-3.083-5.107 3.772-6.379 4.426-2.497 1.106-5.698 5.836-1.963 7.703-1.031 7.375-20.574 0.243-22.409-5.409l-10.141-31.225c-2.543-0.64-7.019 0.672-9.814 0.737l-17.502 0.409-14.067-5.9c-5.411-2.268-3.892 1.854-7.852 1.639-2.607-0.141-1.897-2.609-3.926-3.196-5.819-1.686-1.286-0.7-3.517-4.508-2.47-4.218-6.768 2.437-10.059-1.968-3.416-4.574-2.173-7.501-7.606-10.818-2.312-1.41-0.994-5.885-3.271-6.474-5.533-1.433 2.076-3.414-0.49-5.491-0.637-0.515-3.837-2.425-3.19-3.361 1.011-1.458 3.192 0.568 2.617-2.704 0-5.076-2.847-3.652-5.725-5.983-2.476-2.006 4.491-1.679 2.944-4.18-2.75-4.451-9.021-3.611-10.141-9.753-0.861-4.715 2.27-6.616-3.354-7.703-2.343-0.453-1.664-3.485-5.07-3.935-7.099-0.936 1.277-10.419 3.599-13.358 2.407-3.049 3.604-5.554-0.246-7.541-1.891-4.281-10.119-9.261-14.721-9.261-9.378 0-3.564-6.359-5.398-9.916-1.556-3.022-5.318-3.907-8.423-5.41l-14.559-7.048c-2.652-1.283-4.418 2.552-6.951 3.361-1.967 0.628-4.475-4.149-5.643-5.41-1.678-1.814-7.499 1.302-4.989-3.032 1.301-2.246 0.563-4.665 1.718-7.294 1.792-4.083 0.447-11.339 2.535-14.424 0.521-4.679 12.132-25.027 7.442-26.472l-7.442-2.295c-2.183-0.672-3.652 2.201-6.133 2.295-2.383 0.091-1.957-2.572-2.127-4.426-0.795-8.649-12.855 1.113-15.703 3.524-5.619 0.471-6.671 0.69-11.285-2.704-0.996-0.734-11.409-1.009-12.677-0.409-0.9 0.424-5.153 5.193-5.153 1.967 0-3.128 1.658-4.821-2.125-5.573-1.477-0.294-0.685-2.422-0.9-3.524-2.35-0.595-5.135 3.423-7.933 3.852-2.664 0.409-6.776-2.832-9.324-3.852-5.108-2.044-13.381-15.669-13.248-21.145-2.56-4.092-0.073-6.319-4.826-10.163-3.408-2.756-9.762-2.714-12.185-6.474-2.063-3.2-4.859-1.348-6.216 1.557-1.825 3.91-1.896 5.314-5.316 8.277-3.662 3.172-11.635 2.767-11.941-3.115-0.164-3.145-2.85-1.968-5.071-2.048-4.777-0.173-4.981-2.665-6.461-6.311-2.314-5.695-0.632-5.99-7.689-7.54-3.147-0.633-7.09-3.145-9.896-4.754-2.457-1.41-3.633-1.518-2.454-4.343 1.68-4.027 3.167-7.773 1.064-11.556-1.373-2.467-3.241-6.456-5.889-3.361-0.818 0.955-4.335 9.532-6.298 4.753-0.636-1.547 1.359-4.198-0.654-5.654-0.444-0.32-7.962-0.265-8.588 0.081-1.072 0.593-2.039 2.874-3.761 2.541-3.34-0.645 2.557-5.676 2.125-6.884-0.284-0.791-4.846 0.565-5.479 0.901-1.629 0.864-6.132 1.323-7.852 0.82-1.615-0.543-2.805-4.233-4.335-5.655-2.035-1.89-4.436-3.32-6.788-4.917-5.686-3.859 0.315-6.967 3.681-8.277 2.512-0.977-1.622-5.052-2.863-5.984-4.133-3.105-8.165-6.396-12.922-8.687-7.048-3.393-17.034 2.097-20.527-5.491-0.238-2.374-0.479-5.338-2.372-6.967-2.115-1.818-3.974-1.692-4.58-4.835-0.879-4.558-6.182-9.542-9.569-12.786-1.427-1.366-5.698-6.724-7.36-6.638-3.743 0.194-2.426 7.126-5.153 9.097-2.321 1.68-4.057-0.613-5.071 2.95 0.904 5.998 7.148 9.644 11.45 13.113 3.522 2.841 2.126 9.075 2.126 12.867 0 2.553-1.031 6.099-0.9 8.113 0.257 3.985 2.358 6.93-1.636 8.934 0 1.169 5.24 3.524 0.246 4.098-2.322 0.267-4.4 1.836-6.624 0.655-1.379-0.731-3.249-1.866-4.826-1.803-2.896 0.115-3.435 0.343-3.435-3.36 0-0.427-3e-3 -2.624-0.327-2.705-0.129-0.514-1.878-0.287-2.372-0.327-0.57-0.047-0.719-1.787-0.981-2.214-0.891-1.451-2.73-5.476-4.088-6.228-0.317-0.176-1.227-0.223-1.227-0.655 3.875-0.979 7.579 1.193 4.253-3.197-2.676-3.532-6.711 1.757-7.688-4.343 0-4.026-1.796-8.925 1.88-11.474 2.347-1.628 4.176-6.846-0.49-4.999-4.578 1.812-2.279-1.114-1.8-3.524 0.929-4.677-6.224-0.978-4.825-4.753 0.577-1.557 1.326-3.242 2.045-4.753 2.338-4.92-2.563-12.822-6.543-5.655-1.913 3.444-5.099 4.841-9.079 4.18-5.16 0.977-9.905-2.48-15.784-1.721-7.366 0.95-1.98 3.934-6.38 8.032-1.841 1.716-6.647-0.902-9.323 0.819-1.742 1.121-5.845 10.423-7.034 12.621-3.052 5.646-8.523 15.096-13.74 18.85-4.263 1.333-7.271 4.682-12.185 4.836-2.718 0.085-9.891-0.603-12.104 0.82l-24.863 15.981c-4.63 2.977-10.996 9.803-16.111 5.819-2.055-2.306-3.406-5.835-5.399-7.949-2.653-2.815-3.521-0.98-7.115-0.082-3.75 0.936-16.026 2.836-17.666 6.311-0.841 1.786-1.226 6.35-1.226 8.36-2.13 1.52-0.135 3.196-4.499 3.196-1.818 0-5.541-0.62-6.706 1.066-3.579 5.179-3.97 10.446-9.897 4.508-1.424-1.112-3.391-4.716-5.479-4.179-2.099 0.539-7.622-0.021-8.179 2.13-0.421 1.632 0.889 2.303-0.082 3.524-0.772 0.972-3.76 4.76-4.743 5.164-3.892 1.599-4.943-2.207-6.543-4.426-0.852-1.181-8.369-7.583-9.16-7.375-1.812 0.478-3.776 3.452-5.48 4.507-2.466 1.53-4.217 1.701-6.707 2.95-1.533 0.77-1.913 3.365-3.599 3.442-1.41 0.065-1.755-1.677-3.516-1.475-1.298 0.149-2.023 2.892-3.517 3.689-0.517 1.409-4.609 4.707-2.944 5.818 2.299 1.535-2.735 2.256-3.68 2.377-4.236 0.546-12.772-0.78-14.967 3.196-1.406 2.546-1.913 5.806-2.944 8.523-1.716 4.523-0.906 4.983 0.736 9.262 1.995 5.198 1.346 7.467 0.654 12.293-3.957 0.557-11.687 9.802-15.538 8.851-2.037-8.15-6.979-4.012-13.986-6.229l-6.992 0.423c-2.161 10.369-3.256 21.096-5.133 31.026 0.173 0.441 0.497 2.483 0.715 2.775l0.268 14.233c0.165 8.794 2.443 17.214 2.323 26.674l-0.447 35.088c0.589 6.924 5.272 11.98 7.149 18.797 2.935 10.656 0.756 22.208 3.397 33.029 1.219 4.996 3.442 8.059 2.323 13.695-0.458 2.311-2.199 4.603-2.771 7.161-0.736 3.293-0.77 7.248-1.966 10.383 0.783 6.882 0.937 12.676-0.358 19.424-0.665 3.47-2.269 6.11-0.357 9.309 8.143 13.627 4.213 32.893 6.792 48.245 0.134 0.373 0.392 1.309 0.625 1.701 0 3.892 1.053 8.267 1.252 12.352l2.77 56.839c2.859 13.349 2.198 27.849 4.111 41.354 1.685 11.89 0.324 25.805-5.808 36.43l-12.78 17.992c-6.982 9.829-18.479 17.374-25.828 27.032-2.422 3.183-8.089 4.564-9.742 8.324-0.206 0.469-0.417 0.91-0.63 1.339h1255.7c0.092-0.278 0.162-0.551 0.162-0.792 0-1.353-0.319-2.603-0.319-3.996 0-1.657 0.85-3.311 1.914-4.554 2.255-2.64-0.079-3.173-0.079-5.753 0-1.504 1.768-2.938 2.792-3.836 0-3.715-3.444-5.454-2.393-10.149 0.692-3.087-0.59-6.281 2.313-8.47 6.189-4.669-2.169-12.426 7.097-16.86 1.67-0.799 0.718-3.757 0.718-5.115 0-2.512 3.057 0.657 3.828-2.237 1.056-3.988-4.767-2.269-1.36-5.195z" fill="#9E3039"/>
	<path d="m1223.4 673.57c-2.108 5.135-11.309 11.87-15.55 15.575-10.861 9.486-23.099 15.731-36.552 20.945-3.946 2.718-11.686 5.729-16.533 5.729-0.073 0.109-0.288 0.15-0.447 0.268-0.678 3.452-3.904 7.042-4.737 10.383-2.233 1.395-6.935 9.408-9.027 11.905-11.951 14.273-43.866 26.836-61.307 32.671-10.163 6.578-25.54 6.629-37.088 8.324-8.657 1.271-19.145 3.711-27.973 2.237-5.452-0.911-10.169-6.355-14.477-6.355-14.383 0-26.112-16.811-29.581-30.075-0.416-1.125-1.486-4.057-2.324-4.654-1.619-6.513-8.759-6.106-13.942-5.55-10.912 1.171-18.143-2.481-28.33-4.654-11.09-2.366-17.657-9.592-27.347-14.142-4.018-5.639-9.782-8.648-13.047-14.949l-7.239-13.963c-3.501-6.754-2.743-16.259-2.412-23.9 0.035-0.797 0.047-1.57 0.046-2.33h-641.69l0.243 3.136c0.525 6.764-0.191 14.163 0.805 20.767-2.876 10.088 0.507 22.737 0.178 33.208-0.381 12.144-7.774 24.458-14.567 34.282-1.389 11.095-17.014 29.286-26.543 34.193-5.406 2.785-8.456 11.315-12.779 16.917-6.634 8.595-14.071 13.495-22.968 19.424-2.954 5.925-13.843 8.886-18.32 14.233-3.549 4.236-9.809 6.868-13.763 11.009-5.385 5.638-13.382 10.555-16.622 17.903-3.34 7.577-1.395 16.639 0.089 24.615-1.617 4.213-0.055 10.446-0.625 15.038-2.263 18.214-1.609 37.946-1.609 56.392-0.174 5.859-2.79 11.48-3.753 17.186-0.095 0.56-0.183 1.132-0.275 1.699h2452.6c-1e-3 -0.821-5e-3 -1.592-0.027-2.271-0.111-3.568 0.583-7.861-0.159-11.268-0.267-1.226-6.321-8.849-7.656-8.79-3.032 0.136-6.353 2.982-5.184-2.877 0.307-2.751 4.617-7.664 0.16-7.832-6.731-0.254-4.195-0.889-7.017-5.354-1.687-2.67-3.82-0.08-3.987-4.555-0.164-4.355-3.507-5.446-6.858-7.192-5.239-2.732-2.583-8.518-6.3-12.066-2.089-1.995-4.374-4.458-1.197-6.793 1.614-1.185 4.176-6.368 4.706-6.553 1.737-0.602 3.791-0.112 5.343-0.959 8.605-0.361 4.459-6.213 3.269-10.788-0.785-3.017 1.999-10.58 5.582-10.708 2.348-0.083 6.007 1.611 6.459-2.397 0.395-3.492-2.161-5.777-0.559-8.391 1.266-2.064-2.268-1.624-2.153-3.276 0.125-1.801 0.479-3.439 0.479-5.354-1.709 0-7.73 4.368-9.33 5.513-3.615 2.585-9.471 5.073-13.956 5.274-1.674 0.075-0.798-4.343-0.798-5.594 0.334-4.981-0.769-7.529-3.11-11.587-2.407-4.172-3.435-9.032-5.503-13.424-1.393-2.957-0.16-3.581-0.16-6.233-2.3-0.567-5.271-0.719-7.735-0.719-1.819 0-2.439 3.395-4.226 4.635-5.361 3.719-13.272 7.456-19.618 5.034-5.496-2.096-9.447 3.366-13.478 5.673-1.885 1.077-3.891-0.018-6.379 1.359-1.737 1.303-2.946 3.518-5.025 3.597-4.545 0.17-2.76 0.372-4.785 3.676-2.123 3.461-9.716 4.648-13.557 4.474-2.668-0.12-2.313-3.256-2.313-5.354 0-3.653-0.271-7.879 1.436-11.107 3.713-7.025 4.018-8.739 3.668-16.861-0.317-7.355 4.616-11.747 6.061-18.939 0.133-0.032 0.204-0.054 0.239-0.16 3.232 0 10.292 4.688 12.6-0.079 1.194-2.465 2.936-1.614 5.158-2.83l1.428-26.181 9.044-26.974-12.853 1.587-6.605-2.019c0.922-4.68 1.04-8.297 3.27-12.706 2.426-4.8 0.301-10.632 4.226-14.704 1.483-2.147 5.659-3.845 5.025-6.872-0.415-1.985-2.712-4.337-2.712-6.074 0-4.791 5.065-6.96 7.656-10.229 3.502-4.421-1.067-1.757-3.668-1.757-6.421 0-3.739-3.907-7.655-4.556-2.194-0.362-5.045 0.197-5.264-2.717-0.091-1.216-1.212-5.839 1.515-4.315 4.692 2.624 2.696-0.182 5.264 0.079 1.266 0.128 2.295 2.666 3.828 1.518 4.479-3.358-3.396-6.147-4.067-7.352-3.15-5.661 11.567-15.183 16.507-15.183 3.352 0 3.433 3.91 7.018-1.119 1.621-1.621 3.53-2.283 5.104-3.516 0.9-0.704 0.616-3.169 1.276-4.315 0.24-0.416 0.535-0.982 0.715-1.525h-1255.7c-2.672 5.384-5.917 7.868-10.006 12.539z" fill="#fff"/>
</svg>